<svg xmlns="http://www.w3.org/2000/svg" xmlns:xlink="http://www.w3.org/1999/xlink" width="205" height="124" viewBox="0 0 205 124">
  <defs>
    <clipPath id="clip-path">
      <rect id="Rectangle_30" data-name="Rectangle 30" width="132.686" height="89.398" fill="none"/>
    </clipPath>
  </defs>
  <g id="Group_245" data-name="Group 245" transform="translate(-502 -5448.498)">
    <rect id="Rectangle_20" data-name="Rectangle 20" width="205" height="124" rx="15" transform="translate(502 5448.498)" fill="#d11c29"/>
    <g id="Group_159" data-name="Group 159" transform="translate(538 5465.496)">
      <g id="Group_158" data-name="Group 158" transform="translate(0 0.002)" clip-path="url(#clip-path)">
        <path id="Path_6083" data-name="Path 6083" d="M718.994,17.457a7.569,7.569,0,0,0-1.035-9.285l-.032-.034L710.289.5a1.7,1.7,0,1,0-2.411,2.411l7.639,7.639a1.213,1.213,0,0,1-1.715,1.715l-7.639-7.639a1.7,1.7,0,0,0-2.411,2.411l7.639,7.639a1.213,1.213,0,0,1-1.715,1.715l-7.64-7.64a1.7,1.7,0,1,0-2.411,2.411l7.639,7.64.033.032a7.57,7.57,0,0,0,9.285,1.034l3.5,3.5,2.509,2.509,21.713,21.714a16.191,16.191,0,0,1-22.994-18.173l-2.741-2.741a19.582,19.582,0,0,0,31.082,21.438l-1.207-1.207L747.238,45.7,724.484,22.946l-2.415-2.415ZM758.126,60.12c-3.569-3.569-4.772-8.342-3.144-11.5L752.064,45.7l-2.415-2.415L726.894,20.535l-1.207-1.207-1.207-1.207a19.586,19.586,0,0,1,31.082,21.438l-2.741-2.741a16.187,16.187,0,0,0-22.994-18.173l21.713,21.713,2.51,2.51,3.344,3.344c3.156-1.628,7.929-.425,11.5,3.144,4.147,4.147,5.1,9.92,2.127,12.893s-8.745,2.02-12.893-2.128" transform="translate(-669.596 -0.002)" fill="#fff" fill-rule="evenodd"/>
        <path id="Path_6084" data-name="Path 6084" d="M126.009,1810.9a4.123,4.123,0,0,1,4.361,4.272v.036a4.1,4.1,0,0,1-4.361,4.236h-2.477V1810.9Zm-4.685,10.554h4.685c3.949,0,6.677-2.746,6.677-6.282v-.036c0-3.536-2.728-6.246-6.677-6.246h-4.685Zm-12.145-1.831a4.289,4.289,0,0,1-4.272-4.451v-.036a4.245,4.245,0,0,1,4.236-4.433,4.3,4.3,0,0,1,4.272,4.469v.036a4.23,4.23,0,0,1-4.236,4.415m-.036,2.046a6.438,6.438,0,0,0,6.587-6.5v-.036a6.57,6.57,0,0,0-13.138.036v.036a6.377,6.377,0,0,0,6.551,6.462M91,1819.623a4.289,4.289,0,0,1-4.272-4.451v-.036a4.246,4.246,0,0,1,4.236-4.433,4.3,4.3,0,0,1,4.272,4.469v.036A4.23,4.23,0,0,1,91,1819.623m-.036,2.046a6.438,6.438,0,0,0,6.587-6.5v-.036a6.57,6.57,0,0,0-13.139.036v.036a6.378,6.378,0,0,0,6.552,6.462m-20.581-.215H72.6v-5.115h6.336v-2.01H72.6V1810.9h7.143v-2.01H70.388Zm-20.4-12.564h5.133a6.026,6.026,0,0,1,2.019.314,4.285,4.285,0,0,1,1.508.888,3.883,3.883,0,0,1,.951,1.373,4.568,4.568,0,0,1,.332,1.768v.036a4.406,4.406,0,0,1-.395,1.921,3.921,3.921,0,0,1-1.086,1.382,4.712,4.712,0,0,1-1.616.835,6.85,6.85,0,0,1-1.983.278h-2.1v3.769H49.986Zm4.954,6.336a2.248,2.248,0,0,0,1.615-.547,1.8,1.8,0,0,0,.574-1.355v-.036a1.714,1.714,0,0,0-.6-1.418,2.547,2.547,0,0,0-1.643-.484H52.75v3.841Zm-17.027,6.443a6.842,6.842,0,0,1-2.674-.512,6.657,6.657,0,0,1-2.109-1.382,6.187,6.187,0,0,1-1.382-2.046,6.448,6.448,0,0,1-.494-2.522v-.036a6.348,6.348,0,0,1,.5-2.522,6.429,6.429,0,0,1,3.509-3.464,7.275,7.275,0,0,1,5.358,0,6.648,6.648,0,0,1,2.109,1.382,6.188,6.188,0,0,1,1.382,2.046,6.451,6.451,0,0,1,.494,2.522v.036a6.346,6.346,0,0,1-.5,2.522,6.423,6.423,0,0,1-3.509,3.464,6.908,6.908,0,0,1-2.684.512m.036-2.549a3.775,3.775,0,0,0,1.525-.3,3.493,3.493,0,0,0,1.194-.844,3.981,3.981,0,0,0,.772-1.247,4.115,4.115,0,0,0,.278-1.517v-.036a4.185,4.185,0,0,0-.278-1.526,3.766,3.766,0,0,0-2-2.109,3.688,3.688,0,0,0-1.526-.314,3.762,3.762,0,0,0-1.535.3,3.524,3.524,0,0,0-1.185.844,3.981,3.981,0,0,0-.772,1.247,4.119,4.119,0,0,0-.278,1.516v.036a4.189,4.189,0,0,0,.278,1.526,3.789,3.789,0,0,0,1.992,2.109,3.664,3.664,0,0,0,1.535.314m-22.7-10.231h2.764v4.972h5.1v-4.972h2.764v12.564H23.112v-5.043h-5.1v5.043H15.25Zm-9.919,12.744a8.321,8.321,0,0,1-2.818-.494A7.457,7.457,0,0,1,0,1819.623l1.633-1.957a8.2,8.2,0,0,0,1.768,1.113,4.723,4.723,0,0,0,1.983.413,2.412,2.412,0,0,0,1.337-.315.988.988,0,0,0,.476-.87v-.036a1.09,1.09,0,0,0-.1-.476.993.993,0,0,0-.377-.386,4.048,4.048,0,0,0-.774-.359c-.329-.12-.76-.245-1.287-.377a15.784,15.784,0,0,1-1.729-.52,4.861,4.861,0,0,1-1.313-.709,2.878,2.878,0,0,1-.838-1.05,3.658,3.658,0,0,1-.3-1.561v-.036a3.671,3.671,0,0,1,.32-1.552,3.562,3.562,0,0,1,.9-1.194,4.054,4.054,0,0,1,1.385-.772,5.557,5.557,0,0,1,1.774-.27,7.526,7.526,0,0,1,2.54.413,7.373,7.373,0,0,1,2.127,1.185L8.1,1812.389a9.1,9.1,0,0,0-1.651-.906,4.22,4.22,0,0,0-1.615-.332,1.956,1.956,0,0,0-1.212.314.954.954,0,0,0-.4.781v.036a1.137,1.137,0,0,0,.117.53,1.058,1.058,0,0,0,.422.4,4.068,4.068,0,0,0,.837.341c.356.108.8.233,1.34.377a12.857,12.857,0,0,1,1.7.565,4.747,4.747,0,0,1,1.259.754,2.88,2.88,0,0,1,.775,1.032,3.508,3.508,0,0,1,.26,1.418v.036a3.912,3.912,0,0,1-.338,1.661,3.422,3.422,0,0,1-.945,1.22,4.261,4.261,0,0,1-1.448.754,6.278,6.278,0,0,1-1.864.26" transform="translate(0 -1732.271)" fill="#fff" fill-rule="evenodd"/>
      </g>
    </g>
  </g>
</svg>
